<?xml version="1.0" encoding="UTF-8" standalone="no"?>
<svg
   version="1.1"
   id="svg970"
   sodipodi:docname="vector-rune-grey.svg"
   width="383.39999"
   height="546.34998"
   inkscape:version="1.3.2 (091e20e, 2023-11-25)"
   inkscape:export-filename="runespng"
   inkscape:export-xdpi="400"
   inkscape:export-ydpi="400"
   xmlns:inkscape="http://www.inkscape.org/namespaces/inkscape"
   xmlns:sodipodi="http://sodipodi.sourceforge.net/DTD/sodipodi-0.dtd"
   xmlns="http://www.w3.org/2000/svg"
   xmlns:svg="http://www.w3.org/2000/svg">
  <sodipodi:namedview
     id="namedview970"
     pagecolor="#ffffff"
     bordercolor="#000000"
     borderopacity="0.25"
     inkscape:showpageshadow="2"
     inkscape:pageopacity="0.0"
     inkscape:pagecheckerboard="0"
     inkscape:deskcolor="#d1d1d1"
     inkscape:zoom="0.26416667"
     inkscape:cx="545.11041"
     inkscape:cy="123.02839"
     inkscape:window-width="1366"
     inkscape:window-height="693"
     inkscape:window-x="0"
     inkscape:window-y="35"
     inkscape:window-maximized="1"
     inkscape:current-layer="svg970" />
  <defs
     id="defs1" />
  <g
     id="g970"
     style="fill:#ffffff;fill-opacity:1"
     transform="translate(-35.4,-50.4)">
    <path
       stroke="none"
       fill="#D9D9D9"
       d="m 49,64.95 v 2 l 9.75,7.6 0.95,0.75 -3.1,3.95 L 49,73.3 V 96.4 H 44 V 53.75 l 3.85,-2.1 13.1,8.45 0.9,0.55 -2.7,4.2 L 49,58.35 v 6.6"
       id="path3"
       style="fill:#ffffff;fill-opacity:1" />
    <path
       stroke="none"
       fill="#D9D9D9"
       d="m 116.75,87.75 v 2 l 5.15,-5.15 -1.1,-0.9 -4.05,-3.25 v 7.3 m 4.85,-24.5 -4.85,-4.95 v 9.25 2 l 5.9,-5.25 -1.05,-1.05 m -9.85,-11.1 4.3,-1.75 11.95,12.2 0.05,0.05 -0.1,3.65 -8.6,7.7 -1.2,1.05 9.1,7.4 0.1,1.85 0.1,1.9 -11.4,11.4 -4.3,-1.8 V 52.15"
       id="path6"
       style="fill:#ffffff;fill-opacity:1" />
    <path
       stroke="none"
       fill="#D9D9D9"
       d="m 199,52 0.7,0.3 -8.05,19.45 -0.45,1.05 9.6,21.15 0.75,1.65 -4.55,2.05 -8.45,-18.55 -5.75,13.65 -4.6,-1.95 0.75,-1.7 7.1,-17 0.05,-0.1 0.2,-0.35 8.8,-21.25 3.9,1.6"
       id="path11"
       style="fill:#ffffff;fill-opacity:1" />
    <path
       stroke="none"
       fill="#D9D9D9"
       d="m 247,54.75 4.65,-1.3 9.25,15.3 8.95,-15.75 4.65,1.25 V 92 L 269.85,93.3 261,78.65 251.7,95 247,93.75 v -39 M 269.5,81 V 63.75 l -5.05,8.9 -0.6,1 5.65,9.35 v -2 m -12,-8.2 -5.5,-9.05 v 18.6 2 l 6.05,-10.6 -0.55,-0.95"
       id="path14"
       style="fill:#ffffff;fill-opacity:1" />
    <path
       stroke="none"
       fill="#D9D9D9"
       d="m 315.35,86.75 5.35,-27.5 4.45,-1.05 6.2,8.35 5.15,-9.15 4.65,0.8 5.15,29.65 0.35,1.95 -4.95,0.85 -4.3,-24.65 -3.55,6.35 -4.2,0.25 -5.1,-6.85 -4.7,23.85 -4.9,-0.95 0.4,-1.9"
       id="path19"
       style="fill:#ffffff;fill-opacity:1" />
    <path
       stroke="none"
       fill="#D9D9D9"
       d="m 411.65,55.25 q 0.05,10.45 -4.7,15.6 -4.05,4.65 -11.5,5.25 h -0.1 l 0.6,16.45 0.05,2 -5,0.15 -0.75,-20.95 v -0.1 l -0.3,-8.3 V 64.9 L 389.5,53.45 h 0.1 l 4.9,-0.15 0.3,7.9 q 3.05,-2.1 2.5,-5.4 l -0.05,-0.15 h 0.05 l 4.8,-1.25 0.45,2.2 q 0.65,6.7 -7.4,10.15 h -0.1 l 0.15,4.3 q 5.15,-0.45 8,-3.55 3.45,-4.05 3.45,-12.25 h 5"
       id="path22"
       style="fill:#ffffff;fill-opacity:1" />
    <path
       stroke="none"
       fill="#D9D9D9"
       d="m 410.25,166.3 0.95,1.35 -4.1,2.85 -6.55,-9.4 -4.65,35.9 -4.95,-0.65 0.25,-1.95 5.25,-40.3 4.5,-1.1 9.3,13.3"
       id="path27"
       style="fill:#ffffff;fill-opacity:1" />
    <path
       stroke="none"
       fill="#D9D9D9"
       d="m 329.55,171.35 -0.2,1.9 q 12.3,6 15.65,21.65 l 0.35,1.9 -4.95,0.85 q -2.25,-13.3 -11.6,-18.95 l -1.8,18.4 -4.95,-0.5 0.2,-1.95 1.9,-19.75 v -0.3 -0.05 l 2.1,-22.15 4.85,0.45 h 0.15 l -1.7,18.5"
       id="path31"
       style="fill:#ffffff;fill-opacity:1" />
    <path
       stroke="none"
       fill="#D9D9D9"
       d="m 270.15,168.85 -4.9,-7.25 -1.25,13.25 -0.2,2.2 7.15,-7 -0.8,-1.2 m 5.9,-0.15 0.2,0.25 -0.35,3.2 -12.85,12.6 -1.3,13.45 -5,-0.5 0.2,-1.95 1.1,-11.25 -0.15,-0.15 -12.25,-12.5 v -3.5 l 15.8,-15.55 0.35,-0.35 0.2,-0.15 q 0.35,-0.25 0.7,-0.35 l 0.35,-0.05 0.4,-0.05 h 0.1 l 0.7,0.15 0.45,0.2 0.65,0.55 0.15,0.2 0.05,0.1 v 0.05 l 10.5,15.6 m -24.1,0.5 -1,0.95 7.7,7.85 1.6,-17.05 -0.2,0.2 -8.1,8.05"
       id="path35"
       style="fill:#ffffff;fill-opacity:1" />
    <path
       stroke="none"
       fill="#D9D9D9"
       d="m 193.65,152.4 v 45.25 h -5 V 152.4 h 5"
       id="path39"
       style="fill:#ffffff;fill-opacity:1" />
    <path
       stroke="none"
       fill="#D9D9D9"
       d="m 117.75,168.75 -0.05,2.05 7.2,-5.45 -1.15,-1.1 -5.75,-5.55 -0.25,10.05 m -5.8,28 1.2,-43.85 4.25,-1.75 13,12.5 0.1,0.1 -0.25,3.8 -12.7,9.65 -0.65,21.7 -5,-0.15 0.05,-2"
       id="path42"
       style="fill:#ffffff;fill-opacity:1" />
    <path
       stroke="none"
       fill="#D9D9D9"
       d="m 56.15,172.95 -0.55,1.1 10.9,17.4 0.9,1.45 q -2.1,1.35 -4.25,2.65 l -10.1,-16.1 -9.05,18.85 -4.5,-2.15 0.8,-1.6 9.6,-20.1 -0.55,-0.85 -11.95,-19.2 0.9,-0.55 3.35,-2.1 10.85,17.35 7.65,-16.1 3.75,1.8 0.75,0.35 -8.5,17.8"
       id="path47"
       style="fill:#ffffff;fill-opacity:1" />
    <path
       stroke="none"
       fill="#D9D9D9"
       d="m 59.4,271.85 -1.25,-6.05 -2.15,3.3 -0.9,1.3 4.8,3.85 -0.5,-2.4 m -23.6,15.45 1.25,-7.1 0.05,-0.3 3.7,-21.5 4.5,-1 6.4,9.1 5.65,-8.5 4.5,0.9 4.3,21.15 v 0.15 l 1.55,7.55 0.4,1.9 -4.9,1 -1.75,-8.7 -9.75,-7.85 -9.85,7.6 -1.5,8.4 -4.9,-0.9 0.35,-1.9 m 11.65,-18.2 -2.75,-3.9 -1.15,6.9 -0.4,2.3 5.2,-4 -0.9,-1.3"
       id="path50"
       style="fill:#ffffff;fill-opacity:1" />
    <path
       stroke="none"
       fill="#D9D9D9"
       d="m 109.45,263.05 10.05,3.4 v -2 -12.05 h 5 v 13.7 2 l 9.7,3.25 0.6,0.2 -1.6,4.75 -8.7,-2.9 v 22.25 h -5 V 271.7 l -11.65,-3.9 1.6,-4.75"
       id="path55"
       style="fill:#ffffff;fill-opacity:1" />
    <path
       stroke="none"
       fill="#D9D9D9"
       d="m 184.45,265.3 -0.1,1.9 8.25,6.9 11.2,-7.4 1.85,2.8 0.9,1.4 -12.75,8.4 -3,-0.15 -6.7,-5.65 -0.95,22.65 -5,-0.2 0.1,-2 1.05,-25.4 v -0.1 -0.1 -0.15 l 0.6,-14.6 4.15,-1.75 9.9,8.75 9.75,-5.95 1.75,2.85 0.85,1.45 -11.35,6.9 -2.95,-0.25 -7.3,-6.5 -0.25,6.2"
       id="path58"
       style="fill:#ffffff;fill-opacity:1" />
    <path
       stroke="none"
       fill="#D9D9D9"
       d="m 255.3,265.6 -0.2,2 q 14.55,-1.1 15.65,-12.95 l 4.8,0.35 h 0.2 q -0.85,14.95 -17.15,17.3 l -2.3,0.25 q 10.2,7.2 12.95,19.4 l 0.35,1.95 -4.95,0.8 q -1.85,-11 -10.45,-17.5 l -1.6,17.1 -5,-0.45 0.2,-1.95 1.8,-19.3 v -0.05 l 0.25,-2.5 v -0.15 l 1.5,-16.55 4.85,0.45 h 0.15 l -1.05,11.8"
       id="path63"
       style="fill:#ffffff;fill-opacity:1" />
    <path
       stroke="none"
       fill="#D9D9D9"
       d="m 316.95,292.4 2.2,-23.7 v -0.15 l 1.45,-15.35 4.85,0.45 h 0.15 l -1,10.9 -0.2,2 q 13.1,0.4 15.75,-12.65 l 4.5,0.9 0.4,0.1 q -3.45,17.5 -21.1,16.65 l -2.2,23.25 -5,-0.45 0.2,-1.95"
       id="path67"
       style="fill:#ffffff;fill-opacity:1" />
    <path
       stroke="none"
       fill="#D9D9D9"
       d="m 413.65,294.7 0.75,1.65 -4.55,2 -11,-24.85 0.2,-1.55 0.1,-1 6.5,-8.3 -1.05,-0.65 -9.7,-5.85 -0.9,42 -5,-0.1 0.05,-2 0.95,-44.35 3.8,-2.05 16.85,10.25 0.4,2.05 0.3,1.6 -6.75,8.65 -0.6,0.7 9.65,21.8"
       id="path70"
       style="fill:#ffffff;fill-opacity:1" />
    <path
       stroke="none"
       fill="#D9D9D9"
       d="m 416.95,388.75 1,0.9 -3.35,3.7 -10.45,-9.35 -0.3,12.85 -5,-0.15 0.05,-2 0.25,-11 -0.05,0.05 -10.45,8.15 -3.05,-3.95 1,-0.75 12.7,-9.9 0.55,-24.1 4.95,0.1 h 0.05 l -0.5,22.15 -0.05,1.95 12.65,11.35"
       id="path75"
       style="fill:#ffffff;fill-opacity:1" />
    <path
       stroke="none"
       fill="#D9D9D9"
       d="m 315.75,356.85 h 1.6 l 0.8,-0.15 h 0.1 0.1 l 0.2,0.05 0.6,0.1 h 1.6 v 0.8 q 10.2,4.95 20.4,9.85 v -2 -8.9 h 5 v 21.35 0.4 15.1 h -5 v -11.8 L 320.75,371 v 21.95 h -5 v -36.1 m 5,6.5 v 2 l 20.4,10.65 v -2 -0.95 q -10.2,-4.9 -20.4,-9.85 v 0.15"
       id="path79"
       style="fill:#ffffff;fill-opacity:1" />
    <path
       stroke="none"
       fill="#D9D9D9"
       d="m 246.05,389.8 12.1,-33.1 4.75,0.05 11.4,33.2 0.6,1.8 -4.75,1.6 -9.7,-28.3 -10.35,28.25 -4.7,-1.75 0.65,-1.75"
       id="path83"
       style="fill:#ffffff;fill-opacity:1" />
    <path
       stroke="none"
       fill="#D9D9D9"
       d="m 181.45,392.35 1.4,-35.55 3.75,-2.05 15.5,9 1.25,2.1 0.95,27.25 0.05,2 -5,0.15 -0.95,-27.9 -10.7,-6.2 -1.35,33.4 -5,-0.2 0.1,-2"
       id="path87"
       style="fill:#ffffff;fill-opacity:1" />
    <path
       stroke="none"
       fill="#D9D9D9"
       d="m 105.65,365 12.8,-12.05 0.15,-0.15 q 0.35,-0.4 0.8,-0.55 l 0.75,-0.2 h 0.15 0.05 0.1 0.05 l 0.2,0.05 0.75,0.2 0.7,0.5 0.3,0.4 13.05,14.75 1,1.1 -3.75,3.3 -9.9,-11.2 v 36.8 h -5 V 360.3 l -9.8,9.25 -3.4,-3.65 1,-0.9"
       id="path91"
       style="fill:#ffffff;fill-opacity:1" />
    <path
       stroke="none"
       fill="#D9D9D9"
       d="m 41.45,376 1.05,-23.7 4.9,0.2 h 0.1 l -0.85,19.45 -0.1,2.05 8,-3.85 3.55,2.1 1.55,23.15 0.1,2 -5,0.35 -1.4,-21.5 -8.4,4.05 -3.6,-2.35 0.1,-1.95"
       id="path95"
       style="fill:#ffffff;fill-opacity:1" />
    <path
       stroke="none"
       fill="#D9D9D9"
       d="m 44.2,465.45 -0.2,1.95 7.5,1.75 0.5,0.15 5.75,1.35 -0.25,-2.05 -0.5,-4.1 -12,-6.6 -0.8,7.55 m -7.55,24.9 2.2,-21.2 v -0.3 l 1.6,-15.2 3.65,-1.95 16.4,9 1.3,1.9 1.35,10.95 v 0.35 l 2.25,17.9 0.25,1.95 -4.95,0.6 -2.3,-18.4 -4.95,-1.15 v 16.35 h -5 v -17.6 l -4.95,-1.15 -2.1,20.4 -4.95,-0.5 0.2,-1.95"
       id="path98"
       style="fill:#ffffff;fill-opacity:1" />
    <path
       stroke="none"
       fill="#D9D9D9"
       d="m 107.15,458.15 2.5,-2.55 9.75,9.55 v -2 -11.95 h 5 v 12.6 2 l 10.15,-8.35 2.25,2.7 0.95,1.15 -13.35,11 v 22.55 h -5 v -22.7 l -13.25,-13 1,-1"
       id="path103"
       style="fill:#ffffff;fill-opacity:1" />
    <path
       stroke="none"
       fill="#D9D9D9"
       d="m 205.6,470.4 0.05,0.05 -0.15,3.9 -17.95,12.9 -0.8,4.85 -4.95,-0.85 0.35,-1.95 0.6,-3.65 0.05,-0.25 v -0.15 l 4.4,-26.1 v -0.05 l 0.85,-5.15 4.65,0.7 0.3,0.05 -0.35,2.15 -0.3,1.7 13.25,11.85 m -16.3,6.6 -0.55,3.2 11.25,-8.1 -1.6,-1.45 -7,-6.25 -2.1,12.6"
       id="path107"
       style="fill:#ffffff;fill-opacity:1" />
    <path
       stroke="none"
       fill="#D9D9D9"
       d="m 266.5,461.9 -1.35,1 9.25,7 0.1,2 0.05,1.9 -7.65,6.8 -1.15,1 6.35,5.45 0.95,0.85 -3.25,3.8 -7.8,-6.75 -7.95,7 -3.3,-3.75 1,-0.85 6.4,-5.7 -1.1,-1 -8.75,-7.6 0.1,-1.9 0.05,-2 8.4,-6.25 -1.3,-1 -4.3,-3.25 0.95,-1.25 2.05,-2.75 6.8,5.15 7.65,-5.75 2,2.7 0.95,1.3 -5.15,3.85 m -11.35,8.5 -1.25,0.9 8.05,7 7,-6.25 -1.2,-0.9 -6.75,-5.1 -5.85,4.35"
       id="path111"
       style="fill:#ffffff;fill-opacity:1" />
    <path
       stroke="none"
       fill="#D9D9D9"
       d="m 334.65,477.85 -0.95,1 7.1,7.25 1,1 -3.55,3.5 -7.95,-8.1 -6.95,7.45 -3.65,-3.45 1,-1.05 6.1,-6.55 -0.95,-0.95 -8,-8.25 0.05,-1.95 v -1.55 l 10.85,-10.75 3.5,-0.05 10.65,10 0.05,1.55 0.05,1.95 -8.35,8.95 m 2,-11.4 -6.1,-5.75 -6.35,6.35 -1,0.95 7.05,7.25 7.4,-7.9 -1,-0.9"
       id="path115"
       style="fill:#ffffff;fill-opacity:1" />
    <path
       stroke="none"
       fill="#D9D9D9"
       d="m 417.95,460.4 0.85,1.45 -7,4.1 -2.95,-0.25 -4.95,-4.35 v 31.35 h -5 v -32.05 l -6.55,4.7 -2.6,0.2 -6,-3.1 0.85,-1.55 1.45,-2.9 4.65,2.4 9,-6.45 0.55,-0.35 0.6,-0.25 0.4,-0.05 h 0.3 l 0.45,0.05 0.55,0.25 0.65,0.45 0.05,0.05 7.55,6.65 5.45,-3.2 1.7,2.85"
       id="path118"
       style="fill:#ffffff;fill-opacity:1" />
    <path
       stroke="none"
       fill="#D9D9D9"
       d="m 348.15,573.4 0.05,1.95 -14.5,15.25 -3.55,0.1 -15.85,-14.75 v -3.65 l 15.6,-15 3.45,0.05 14.75,14.5 0.05,1.55 m -27.45,-0.3 -1.05,1 12.1,11.25 11.1,-11.7 -0.95,-0.95 -10.3,-10.1 -10.9,10.5"
       id="path125"
       style="fill:#ffffff;fill-opacity:1" />
    <path
       stroke="none"
       fill="#D9D9D9"
       d="m 274.2,589.7 0.85,0.5 -2.6,4.3 -11.5,-6.9 -9.45,9.15 -4.25,-1.8 V 553.2 l 4.05,-1.95 9.95,7.7 11.05,-6.25 1.6,2.85 0.85,1.5 -12.5,7.1 -2.75,-0.2 -7.25,-5.65 v 28.75 2 l 6.6,-6.4 3.05,-0.35 12.3,7.4"
       id="path130"
       style="fill:#ffffff;fill-opacity:1" />
    <path
       stroke="none"
       fill="#D9D9D9"
       d="m 185.9,573.75 -0.95,1 14.15,15.2 1,1.05 -3.65,3.4 -16.75,-18 V 573 l 18.5,-19.4 2.6,2.5 1,0.95 -15.9,16.7"
       id="path134"
       style="fill:#ffffff;fill-opacity:1" />
    <path
       stroke="none"
       fill="#D9D9D9"
       d="m 104.95,578.8 14.1,-13.4 2.45,2.55 1,1.05 -11.1,10.6 -1.1,1 11.05,10.3 1,0.9 -3.4,3.65 -14,-13 v -3.65 m 25.75,-11.7 -12.9,-10.7 1,-1.15 2.2,-2.7 16.25,13.5 0.05,1.85 0.05,1.95 -14.65,13.15 -3.35,-3.75 1,-0.9 11.5,-10.3 -1.15,-0.95"
       id="path137"
       style="fill:#ffffff;fill-opacity:1" />
    <path
       stroke="none"
       fill="#D9D9D9"
       d="m 40.5,581.75 -0.05,2 9.9,-6.8 2.9,0.05 8.25,6.1 v -2 -16.8 l -9.15,5.85 -2.7,-0.05 -8.95,-5.85 -0.2,17.5 m -5.05,4.8 0.3,-26.95 3.9,-2.1 11.4,7.55 11.65,-7.4 3.8,2.1 V 588 l -3.95,2 -10.85,-7.95 -12.35,8.5 -3.95,-2.05 0.05,-1.95"
       id="path141"
       style="fill:#ffffff;fill-opacity:1" />
  </g>
</svg>
