<?xml version="1.0" encoding="UTF-8" standalone="no"?>
<svg
   height="16"
   viewBox="0 0 16 16"
   width="16"
   version="1.1"
   id="svg1"
   xmlns="http://www.w3.org/2000/svg"
   xmlns:svg="http://www.w3.org/2000/svg">
  <defs
     id="defs1" />
  <path
     id="path2"
     style="fill:#eeeeee;fill-opacity:1;stroke-width:1.69188"
     d="m 4.6795635,1 c -0.9170304,1e-7 -1.6607143,0.7721222 -1.6607143,1.7242064 v 1.9325397 6.6884929 1.930556 C 3.0188491,14.227881 3.762533,15 4.6795635,15 H 12.981151 V 13.067461 2.9325398 1 H 8.0009921 Z M 5.905754,2.4424604 h 2.0753969 c 1.9041139,0 2.8551591,0.7419951 2.8551591,2.2261905 0,0.4488786 -0.08616,0.8569518 -0.25992,1.2261905 -0.173761,0.361999 -0.419537,0.6518484 -0.7380962,0.8690477 l 1.3670652,2.279762 C 11.147439,9.2174105 10.960425,9.416434 10.641865,9.6408733 10.207467,9.952192 9.8488276,10.109127 9.5664683,10.109127 c -0.2823591,0 -0.4933928,-0.100852 -0.6309524,-0.3035712 L 7.9156747,7.4265874 H 7.5783731 v 2.4642854 c 0,0.1158402 -0.3439482,0.1746032 -1.0317461,0.1746032 -0.6950378,0 -1.0416667,-0.05409 -1.0416667,-0.1626981 V 2.8214287 c 0,-0.2533993 0.1329145,-0.3789683 0.4007937,-0.3789683 z m 1.6726191,1.920635 v 1.6289683 h 0.053571 c 0.6877977,0 1.031746,-0.2851847 1.031746,-0.8571428 0,-0.2606393 -0.06879,-0.4523174 -0.2063492,-0.5753969 C 8.3270217,4.4292043 8.1106268,4.3630954 7.8065477,4.3630954 Z M 5.3025793,11.940477 h 2.8154764 4.1428573 v 1.126984 1.128968 H 8.1180557 5.3025793 c -0.7757367,0 -1.4041047,-0.505251 -1.406746,-1.128968 0.00263,-0.623716 0.6310093,-1.126984 1.406746,-1.126984 z" />
</svg>
